<svg width="16" height="30" viewBox="0 0 16 30" fill="none" xmlns="http://www.w3.org/2000/svg">
<path d="M15.4158 0.340088L11.7128 0.333984C7.55259 0.333984 4.86408 3.16744 4.86408 7.55296V10.8814H1.14086C0.819127 10.8814 0.558594 11.1493 0.558594 11.4798V16.3023C0.558594 16.6328 0.819424 16.9005 1.14086 16.9005H4.86408V29.0692C4.86408 29.3997 5.12461 29.6673 5.44634 29.6673H10.3041C10.6258 29.6673 10.8863 29.3994 10.8863 29.0692V16.9005H15.2397C15.5614 16.9005 15.8219 16.6328 15.8219 16.3023L15.8237 11.4798C15.8237 11.3211 15.7622 11.1692 15.6532 11.0569C15.5442 10.9446 15.3956 10.8814 15.2411 10.8814H10.8863V8.05983C10.8863 6.70368 11.2009 6.01523 12.9207 6.01523L15.4152 6.01432C15.7367 6.01432 15.9972 5.74638 15.9972 5.41619V0.93821C15.9972 0.608327 15.737 0.340698 15.4158 0.340088Z" fill="#787A80"/>
</svg>
