<svg width="48" height="48" viewBox="0 0 48 48" fill="none" xmlns="http://www.w3.org/2000/svg">
<g clip-path="url(#clip0_96_2651)">
<path d="M45.4073 28.8162C46.3815 27.5291 46.579 25.7208 45.7241 24.2001L40.2156 14.3045C39.2625 12.6089 37.2207 11.8167 35.3857 12.2846C35.7954 10.5382 35.0528 8.65104 33.4301 7.68907L23.7533 1.95263C22.3713 1.13323 20.7069 1.19638 19.4184 1.97293C18.691 0.750133 17.3627 -0.077655 15.8388 -0.0952046L4.49581 -0.225833C2.16975 -0.252621 0.25555 1.61799 0.228763 3.94406C0.21753 4.91946 -0.213887 42.3811 -0.226818 43.5039C-0.253605 45.83 1.61701 47.7442 3.94307 47.771C5.03547 47.7836 38.1566 48.165 43.5029 48.2266C45.829 48.2534 47.7432 46.3827 47.77 44.0567L47.9006 32.7137C47.9205 30.9848 46.8918 29.4841 45.4073 28.8162ZM16.7408 43.6993C16.7319 44.4747 16.0938 45.0982 15.3185 45.0893L3.97546 44.9587C3.2001 44.9497 2.57657 44.3117 2.5855 43.5363C2.59289 42.8939 2.72521 31.4042 2.73232 30.7872L16.8876 30.9502L16.7408 43.6993ZM16.92 28.1379L2.76471 27.9749L2.89533 16.6319L17.0506 16.7949L16.92 28.1379ZM17.083 13.9826L2.92772 13.8195L3.04108 3.97644C3.05001 3.20109 3.68807 2.57755 4.46343 2.58648L15.8064 2.71711C16.5818 2.72604 17.2053 3.3641 17.1964 4.13946L17.083 13.9826ZM19.993 5.53751L20.3918 4.86471C20.7874 4.1975 21.652 3.97644 22.3191 4.372L31.9959 10.1084C32.6631 10.504 32.8841 11.3685 32.4875 12.0376L30.8302 14.8431C30.7888 14.9027 30.7515 14.9647 30.72 15.0295L19.6682 33.7382L19.993 5.53751ZM19.6033 39.3778L33.0113 16.6803L35.7473 15.1425C36.4409 14.7526 37.3832 15.0051 37.7611 15.6775L43.2696 25.5731C43.6507 26.2511 43.414 27.1118 42.7291 27.4968C41.7182 28.0665 20.5854 39.9782 19.5899 40.5393L19.6033 39.3778ZM44.9577 44.0243C44.9488 44.7996 44.3107 45.4232 43.5353 45.4143L19.2951 45.1351C19.4498 44.714 19.5391 44.2617 19.551 43.7897L41.8207 31.2373L43.6984 31.2589C44.4737 31.2679 45.0972 31.9059 45.0883 32.6813L44.9577 44.0243Z" fill="#FF5A30"/>
</g>
<defs>
<clipPath id="clip0_96_2651">
<rect width="48" height="48" fill="white"/>
</clipPath>
</defs>
</svg>
