<svg width="49" height="57" viewBox="0 0 49 57" fill="none" xmlns="http://www.w3.org/2000/svg">
<g clip-path="url(#clip0_1499_1692)">
<path d="M45.9073 28.8152C46.8815 27.5281 47.079 25.7199 46.2241 24.1991L40.7156 14.3035C39.7625 12.6079 37.7207 11.8157 35.8857 12.2836C36.2954 10.5372 35.5528 8.65006 33.9301 7.68809L24.2533 1.95166C22.8713 1.13225 21.2069 1.1954 19.9184 1.97196C19.191 0.749156 17.8627 -0.0786316 16.3388 -0.0961812L4.99581 -0.22681C2.66975 -0.253597 0.75555 1.61702 0.728763 3.94308C0.71753 4.91848 0.286113 42.3801 0.273182 43.503C0.246395 45.829 2.11701 47.7432 4.44307 47.77C5.53547 47.7826 38.6566 48.164 44.0029 48.2256C46.329 48.2524 48.2432 46.3818 48.27 44.0557L48.4006 32.7127C48.4205 30.9838 47.3918 29.4831 45.9073 28.8152ZM17.2408 43.6984C17.2319 44.4737 16.5938 45.0973 15.8185 45.0883L4.47546 44.9577C3.7001 44.9488 3.07657 44.3107 3.0855 43.5353C3.09289 42.8929 3.22521 31.4032 3.23232 30.7862L17.3876 30.9492L17.2408 43.6984ZM17.42 28.1369L3.26471 27.9739L3.39533 16.6309L17.5506 16.7939L17.42 28.1369ZM17.583 13.9816L3.42772 13.8186L3.54108 3.97547C3.55001 3.20011 4.18807 2.57657 4.96343 2.5855L16.3064 2.71613C17.0818 2.72506 17.7053 3.36313 17.6964 4.13848L17.583 13.9816ZM20.493 5.53653L20.8918 4.86373C21.2874 4.19653 22.152 3.97547 22.8191 4.37102L32.4959 10.1075C33.1631 10.503 33.3841 11.3676 32.9875 12.0366L31.3302 14.8421C31.2888 14.9018 31.2515 14.9638 31.22 15.0286L20.1682 33.7372L20.493 5.53653ZM20.1033 39.3768L33.5113 16.6794L36.2473 15.1415C36.9409 14.7517 37.8832 15.0041 38.2611 15.6765L43.7696 25.5722C44.1507 26.2501 43.914 27.1109 43.2291 27.4958C42.2182 28.0655 21.0854 39.9772 20.0899 40.5383L20.1033 39.3768ZM45.4577 44.0233C45.4488 44.7987 44.8107 45.4222 44.0353 45.4133L19.7951 45.1341C19.9498 44.7131 20.0391 44.2607 20.051 43.7888L42.3207 31.2363L44.1984 31.258C44.9737 31.2669 45.5972 31.905 45.5883 32.6803L45.4577 44.0233Z" fill="#9A9CA5"/>
<path d="M4.71875 48C2.39253 48 0.5 49.8925 0.5 52.2188C0.5 54.545 2.39253 56.4375 4.71875 56.4375C7.04497 56.4375 8.9375 54.545 8.9375 52.2188C8.9375 49.8925 7.04497 48 4.71875 48ZM4.71875 53.625C3.94334 53.625 3.3125 52.9942 3.3125 52.2188C3.3125 51.4433 3.94334 50.8125 4.71875 50.8125C5.49416 50.8125 6.125 51.4433 6.125 52.2188C6.125 52.9942 5.49416 53.625 4.71875 53.625Z" fill="#9A9CA5"/>
</g>
<defs>
<clipPath id="clip0_1499_1692">
<rect width="48" height="56.4375" fill="white" transform="translate(0.5)"/>
</clipPath>
</defs>
</svg>
