<svg width="28" height="28" viewBox="0 0 28 28" fill="none" xmlns="http://www.w3.org/2000/svg">
<path d="M27.3346 13.6559C27.3346 20.8302 21.4742 26.6459 14.2437 26.6459C11.9483 26.6459 9.79182 26.0592 7.91567 25.0296L0.667969 27.3327L3.03093 20.3632C1.83893 18.4059 1.15241 16.1102 1.15241 13.6559C1.15241 6.48172 7.01345 0.666016 14.2437 0.666016C21.4748 0.666016 27.3346 6.48172 27.3346 13.6559ZM14.2437 2.73476C8.17434 2.73476 3.23745 7.63402 3.23745 13.6559C3.23745 16.0456 4.01641 18.2586 5.33404 20.0589L3.95893 24.1149L8.18856 22.7706C9.92634 23.9116 12.0081 24.5771 14.244 24.5771C20.3124 24.5771 25.2502 19.6785 25.2502 13.6565C25.2502 7.63461 20.3127 2.73476 14.2437 2.73476ZM20.8543 16.6476C20.7734 16.5152 20.5598 16.4352 20.2392 16.2761C19.918 16.117 18.34 15.3463 18.0466 15.2405C17.7524 15.1345 17.5379 15.0811 17.3243 15.3996C17.1106 15.7185 16.4955 16.4352 16.308 16.6476C16.1207 16.8607 15.9337 16.8873 15.6126 16.7279C15.292 16.5688 14.2582 16.2322 13.0324 15.1478C12.0786 14.3039 11.4345 13.2622 11.2472 12.9431C11.0603 12.6245 11.2277 12.4524 11.388 12.2939C11.5326 12.1511 11.7092 11.922 11.8695 11.7362C12.0303 11.5502 12.0837 11.4177 12.19 11.205C12.2976 10.9925 12.244 10.8068 12.1634 10.6471C12.0834 10.4879 11.441 8.92113 11.1737 8.2835C10.9065 7.64646 10.6395 7.75253 10.452 7.75253C10.265 7.75253 10.0508 7.72587 9.83686 7.72587C9.62293 7.72587 9.27508 7.80557 8.98086 8.12409C8.68693 8.4429 7.85819 9.21327 7.85819 10.7798C7.85819 12.3466 9.00752 13.8604 9.16841 14.0725C9.32871 14.2847 11.3877 17.6044 14.6499 18.8793C17.9124 20.1537 17.9124 19.7285 18.5009 19.6752C19.0887 19.6222 20.3989 18.9051 20.6674 18.162C20.934 17.4177 20.934 16.7804 20.8543 16.6476Z" fill="#787A80"/>
</svg>
